<mxfile host="app.diagrams.net" modified="2020-04-27T11:23:06.549Z" agent="5.0 (Windows)" etag="5FJMEgmPVL6mVug8ERz3" version="13.0.1" type="github">
  <diagram id="oInA9YpVJKGzTpnUIwjt" name="Page-1">
    <mxGraphModel dx="2272" dy="1891" grid="1" gridSize="10" guides="1" tooltips="1" connect="1" arrows="1" fold="1" page="1" pageScale="1" pageWidth="850" pageHeight="1100" math="0" shadow="0">
      <root>
        <mxCell id="0" />
        <mxCell id="1" parent="0" />
        <mxCell id="J2-bpZsxf6MJ3AO0Zzre-2" value="w1" style="text;html=1;resizable=0;autosize=1;align=center;verticalAlign=middle;points=[];fillColor=none;strokeColor=none;rounded=0;fontColor=#0050A1;fontStyle=1" parent="1" vertex="1">
          <mxGeometry x="216" y="120" width="30" height="20" as="geometry" />
        </mxCell>
        <mxCell id="J2-bpZsxf6MJ3AO0Zzre-5" value="w2" style="text;html=1;resizable=0;autosize=1;align=center;verticalAlign=middle;points=[];fillColor=none;strokeColor=none;rounded=0;fontColor=#0050A1;fontStyle=1" parent="1" vertex="1">
          <mxGeometry x="336" y="120" width="30" height="20" as="geometry" />
        </mxCell>
        <mxCell id="J2-bpZsxf6MJ3AO0Zzre-6" value="w3" style="text;html=1;resizable=0;autosize=1;align=center;verticalAlign=middle;points=[];fillColor=none;strokeColor=none;rounded=0;fontColor=#0050A1;fontStyle=1" parent="1" vertex="1">
          <mxGeometry x="456" y="120" width="30" height="20" as="geometry" />
        </mxCell>
        <mxCell id="J2-bpZsxf6MJ3AO0Zzre-7" value="w4" style="text;html=1;resizable=0;autosize=1;align=center;verticalAlign=middle;points=[];fillColor=none;strokeColor=none;rounded=0;fontColor=#0050A1;fontStyle=1" parent="1" vertex="1">
          <mxGeometry x="576" y="120" width="30" height="20" as="geometry" />
        </mxCell>
        <mxCell id="J2-bpZsxf6MJ3AO0Zzre-8" value="w5" style="text;html=1;resizable=0;autosize=1;align=center;verticalAlign=middle;points=[];fillColor=none;strokeColor=none;rounded=0;fontColor=#0050A1;fontStyle=1" parent="1" vertex="1">
          <mxGeometry x="696" y="120" width="30" height="20" as="geometry" />
        </mxCell>
        <mxCell id="J2-bpZsxf6MJ3AO0Zzre-9" value="w6" style="text;html=1;resizable=0;autosize=1;align=center;verticalAlign=middle;points=[];fillColor=none;strokeColor=none;rounded=0;fontColor=#0050A1;fontStyle=1" parent="1" vertex="1">
          <mxGeometry x="816" y="120" width="30" height="20" as="geometry" />
        </mxCell>
        <mxCell id="J2-bpZsxf6MJ3AO0Zzre-10" value="LT0" style="text;html=1;resizable=0;autosize=1;align=center;verticalAlign=middle;points=[];fillColor=none;strokeColor=none;rounded=0;fontColor=#0050A1;fontStyle=1;fontSize=17;" parent="1" vertex="1">
          <mxGeometry x="16" y="110" width="40" height="30" as="geometry" />
        </mxCell>
        <mxCell id="J2-bpZsxf6MJ3AO0Zzre-19" value="LT1" style="text;html=1;resizable=0;autosize=1;align=center;verticalAlign=middle;points=[];fillColor=none;strokeColor=none;rounded=0;fontColor=#0050A1;fontStyle=1;fontSize=17;" parent="1" vertex="1">
          <mxGeometry x="624" y="-80" width="40" height="30" as="geometry" />
        </mxCell>
        <mxCell id="J2-bpZsxf6MJ3AO0Zzre-21" value="" style="shape=flexArrow;endArrow=classic;html=1;fontSize=17;fontColor=#0050A1;exitX=-0.05;exitY=1.1;exitDx=0;exitDy=0;exitPerimeter=0;labelBackgroundColor=#7EA6E0;strokeColor=#7EA6E0;fillColor=#B6D3FC;" parent="1" source="J2-bpZsxf6MJ3AO0Zzre-10" edge="1">
          <mxGeometry width="50" height="50" relative="1" as="geometry">
            <mxPoint x="66" y="180" as="sourcePoint" />
            <mxPoint x="1060" y="143" as="targetPoint" />
          </mxGeometry>
        </mxCell>
        <mxCell id="J2-bpZsxf6MJ3AO0Zzre-22" value="" style="shape=flexArrow;endArrow=classic;html=1;fontSize=17;fontColor=#000000;labelBackgroundColor=#7EA6E0;strokeColor=#6686B5;fillColor=#7EA6E0;" parent="1" edge="1">
          <mxGeometry width="50" height="50" relative="1" as="geometry">
            <mxPoint x="600" y="-20" as="sourcePoint" />
            <mxPoint x="850" y="-20" as="targetPoint" />
          </mxGeometry>
        </mxCell>
        <mxCell id="J2-bpZsxf6MJ3AO0Zzre-24" value="Release" style="rounded=1;whiteSpace=wrap;html=1;fontSize=17;fontColor=#0050A1;" parent="1" vertex="1">
          <mxGeometry x="602" y="-50" width="94" height="20" as="geometry" />
        </mxCell>
        <mxCell id="J2-bpZsxf6MJ3AO0Zzre-37" style="edgeStyle=orthogonalEdgeStyle;rounded=0;orthogonalLoop=1;jettySize=auto;html=1;exitX=1;exitY=0;exitDx=0;exitDy=0;labelBackgroundColor=#7EA6E0;strokeColor=#7EA6E0;fontSize=17;fontColor=#0050A1;" parent="1" source="J2-bpZsxf6MJ3AO0Zzre-25" edge="1">
          <mxGeometry relative="1" as="geometry">
            <mxPoint x="590" y="340" as="targetPoint" />
          </mxGeometry>
        </mxCell>
        <mxCell id="J2-bpZsxf6MJ3AO0Zzre-25" value="F3 (3 stories) V&amp;amp;V" style="rounded=1;whiteSpace=wrap;html=1;fontSize=16;fillColor=#d5e8d4;strokeColor=#82b366;fontStyle=0" parent="1" vertex="1">
          <mxGeometry x="300" y="490" width="290" height="20" as="geometry" />
        </mxCell>
        <mxCell id="J2-bpZsxf6MJ3AO0Zzre-36" style="edgeStyle=orthogonalEdgeStyle;rounded=0;orthogonalLoop=1;jettySize=auto;html=1;exitX=1;exitY=0;exitDx=0;exitDy=0;labelBackgroundColor=#7EA6E0;strokeColor=#7EA6E0;fontSize=17;fontColor=#0050A1;" parent="1" source="J2-bpZsxf6MJ3AO0Zzre-26" edge="1">
          <mxGeometry relative="1" as="geometry">
            <mxPoint x="299.9411764705883" y="340" as="targetPoint" />
          </mxGeometry>
        </mxCell>
        <mxCell id="J2-bpZsxf6MJ3AO0Zzre-26" value="F1 (3 stories) V&amp;amp;V" style="rounded=1;whiteSpace=wrap;html=1;fontSize=16;fillColor=#fff2cc;strokeColor=#d6b656;fontStyle=0" parent="1" vertex="1">
          <mxGeometry x="22" y="430" width="280" height="20" as="geometry" />
        </mxCell>
        <mxCell id="J2-bpZsxf6MJ3AO0Zzre-29" value="w0" style="text;html=1;resizable=0;autosize=1;align=center;verticalAlign=middle;points=[];fillColor=none;strokeColor=none;rounded=0;fontColor=#0050A1;fontStyle=1" parent="1" vertex="1">
          <mxGeometry x="96" y="120" width="30" height="20" as="geometry" />
        </mxCell>
        <mxCell id="J2-bpZsxf6MJ3AO0Zzre-34" style="edgeStyle=orthogonalEdgeStyle;rounded=0;orthogonalLoop=1;jettySize=auto;html=1;exitX=1;exitY=0;exitDx=0;exitDy=0;labelBackgroundColor=#7EA6E0;strokeColor=#7EA6E0;fontSize=17;fontColor=#0050A1;" parent="1" source="J2-bpZsxf6MJ3AO0Zzre-31" edge="1">
          <mxGeometry relative="1" as="geometry">
            <mxPoint x="471" y="340" as="targetPoint" />
          </mxGeometry>
        </mxCell>
        <mxCell id="J2-bpZsxf6MJ3AO0Zzre-31" value="Feature 2 (2 stories)" style="rounded=1;whiteSpace=wrap;html=1;fontSize=17;fillColor=#dae8fc;strokeColor=#6c8ebf;fontColor=#0050A1;" parent="1" vertex="1">
          <mxGeometry x="202" y="460" width="270" height="20" as="geometry" />
        </mxCell>
        <mxCell id="J2-bpZsxf6MJ3AO0Zzre-38" value="" style="shape=flexArrow;endArrow=classic;html=1;labelBackgroundColor=#7EA6E0;strokeColor=#7EA6E0;fillColor=none;fontSize=17;fontColor=#0050A1;" parent="1" edge="1">
          <mxGeometry width="50" height="50" relative="1" as="geometry">
            <mxPoint x="300" y="328" as="sourcePoint" />
            <mxPoint x="300" y="223" as="targetPoint" />
          </mxGeometry>
        </mxCell>
        <mxCell id="J2-bpZsxf6MJ3AO0Zzre-39" value="" style="shape=flexArrow;endArrow=classic;html=1;labelBackgroundColor=#7EA6E0;strokeColor=#7EA6E0;fillColor=none;fontSize=17;fontColor=#0050A1;" parent="1" edge="1">
          <mxGeometry width="50" height="50" relative="1" as="geometry">
            <mxPoint x="472" y="325" as="sourcePoint" />
            <mxPoint x="472" y="220" as="targetPoint" />
          </mxGeometry>
        </mxCell>
        <mxCell id="J2-bpZsxf6MJ3AO0Zzre-40" value="" style="shape=flexArrow;endArrow=classic;html=1;labelBackgroundColor=#7EA6E0;strokeColor=#7EA6E0;fillColor=none;fontSize=17;fontColor=#0050A1;" parent="1" edge="1">
          <mxGeometry width="50" height="50" relative="1" as="geometry">
            <mxPoint x="590" y="325" as="sourcePoint" />
            <mxPoint x="590" y="220" as="targetPoint" />
          </mxGeometry>
        </mxCell>
        <mxCell id="yDNGOB7GQb5LNbqF-BeX-9" value="" style="endArrow=none;dashed=1;html=1;" parent="1" edge="1">
          <mxGeometry width="50" height="50" relative="1" as="geometry">
            <mxPoint x="120" y="360" as="sourcePoint" />
            <mxPoint x="120" y="60" as="targetPoint" />
          </mxGeometry>
        </mxCell>
        <mxCell id="yDNGOB7GQb5LNbqF-BeX-10" value="" style="endArrow=none;dashed=1;html=1;" parent="1" edge="1">
          <mxGeometry width="50" height="50" relative="1" as="geometry">
            <mxPoint x="600" y="360" as="sourcePoint" />
            <mxPoint x="600" y="60" as="targetPoint" />
          </mxGeometry>
        </mxCell>
        <mxCell id="yDNGOB7GQb5LNbqF-BeX-12" value="CT F1&amp;nbsp; " style="rounded=1;whiteSpace=wrap;html=1;fontSize=16;fillColor=#fff2cc;strokeColor=#d6b656;fontStyle=0" parent="1" vertex="1">
          <mxGeometry x="308" y="150" width="152" height="20" as="geometry" />
        </mxCell>
        <mxCell id="yDNGOB7GQb5LNbqF-BeX-13" value="CT F2" style="rounded=1;whiteSpace=wrap;html=1;fontSize=16;fillColor=#dae8fc;strokeColor=#6c8ebf;fontStyle=0" parent="1" vertex="1">
          <mxGeometry x="470" y="180" width="180" height="20" as="geometry" />
        </mxCell>
        <mxCell id="yDNGOB7GQb5LNbqF-BeX-16" value="F2 (2 stories) V&amp;amp;V" style="rounded=1;whiteSpace=wrap;html=1;fontSize=16;fillColor=#dae8fc;strokeColor=#6c8ebf;fontStyle=0" parent="1" vertex="1">
          <mxGeometry x="202" y="460" width="270" height="20" as="geometry" />
        </mxCell>
        <mxCell id="yDNGOB7GQb5LNbqF-BeX-17" value="Regression" style="rounded=1;whiteSpace=wrap;html=1;fontSize=16;fillColor=#f8cecc;strokeColor=#b85450;fontStyle=0;arcSize=50;" parent="1" vertex="1">
          <mxGeometry x="850" y="-105" width="100" height="20" as="geometry" />
        </mxCell>
        <mxCell id="yDNGOB7GQb5LNbqF-BeX-18" value="w7" style="text;html=1;resizable=0;autosize=1;align=center;verticalAlign=middle;points=[];fillColor=none;strokeColor=none;rounded=0;fontColor=#0050A1;fontStyle=1" parent="1" vertex="1">
          <mxGeometry x="940" y="120" width="30" height="20" as="geometry" />
        </mxCell>
        <mxCell id="yDNGOB7GQb5LNbqF-BeX-19" value="" style="shape=flexArrow;endArrow=classic;html=1;fontSize=17;fontColor=#0050A1;labelBackgroundColor=#7EA6E0;strokeColor=#7EA6E0;fillColor=#0050A1;" parent="1" edge="1">
          <mxGeometry width="50" height="50" relative="1" as="geometry">
            <mxPoint x="850" y="-125" as="sourcePoint" />
            <mxPoint x="960" y="-125" as="targetPoint" />
          </mxGeometry>
        </mxCell>
        <mxCell id="yDNGOB7GQb5LNbqF-BeX-20" value="LTA" style="text;html=1;resizable=0;autosize=1;align=center;verticalAlign=middle;points=[];fillColor=none;strokeColor=none;rounded=0;fontColor=#0050A1;fontStyle=1;fontSize=17;" parent="1" vertex="1">
          <mxGeometry x="790" y="-140" width="50" height="30" as="geometry" />
        </mxCell>
        <mxCell id="yDNGOB7GQb5LNbqF-BeX-22" value="" style="shape=flexArrow;endArrow=classic;html=1;labelBackgroundColor=#7EA6E0;strokeColor=#7EA6E0;fillColor=none;fontSize=17;fontColor=#0050A1;" parent="1" edge="1">
          <mxGeometry width="50" height="50" relative="1" as="geometry">
            <mxPoint x="599.41" y="105" as="sourcePoint" />
            <mxPoint x="599.41" as="targetPoint" />
          </mxGeometry>
        </mxCell>
        <mxCell id="yDNGOB7GQb5LNbqF-BeX-23" value="CT F3" style="rounded=1;whiteSpace=wrap;html=1;fontSize=16;fillColor=#d5e8d4;strokeColor=#82b366;fontStyle=0" parent="1" vertex="1">
          <mxGeometry x="602" y="203" width="178" height="20" as="geometry" />
        </mxCell>
        <mxCell id="yDNGOB7GQb5LNbqF-BeX-27" value="Ready" style="text;html=1;resizable=0;autosize=1;align=center;verticalAlign=middle;points=[];fillColor=none;strokeColor=none;rounded=0;fontSize=18;fontColor=#0050A1;fontStyle=1" parent="1" vertex="1">
          <mxGeometry x="847" y="-180" width="70" height="30" as="geometry" />
        </mxCell>
        <mxCell id="ES80SX5Zz3jKVwGMJFqL-1" value="Regression" style="rounded=1;whiteSpace=wrap;html=1;fontSize=16;fillColor=#f8cecc;strokeColor=#b85450;fontStyle=0;arcSize=50;" parent="1" vertex="1">
          <mxGeometry x="472" y="100" width="120" height="20" as="geometry" />
        </mxCell>
        <mxCell id="fZmAQrrmawyAuLXGU1xv-1" value="Regression" style="rounded=1;whiteSpace=wrap;html=1;fontSize=16;fillColor=#f8cecc;strokeColor=#b85450;fontStyle=0;arcSize=50;" parent="1" vertex="1">
          <mxGeometry x="654" width="114" height="20" as="geometry" />
        </mxCell>
        <mxCell id="fZmAQrrmawyAuLXGU1xv-6" value="Development" style="rounded=1;whiteSpace=wrap;html=1;fontSize=17;fontColor=#0050A1;" parent="1" vertex="1">
          <mxGeometry x="-12" y="160" width="108" height="20" as="geometry" />
        </mxCell>
        <mxCell id="fZmAQrrmawyAuLXGU1xv-8" value="frozen" style="rounded=1;whiteSpace=wrap;html=1;fontSize=16;fillColor=#dae8fc;strokeColor=#6c8ebf;fontStyle=0;comic=1;" parent="1" vertex="1">
          <mxGeometry x="620" y="60" width="220" height="40" as="geometry" />
        </mxCell>
      </root>
    </mxGraphModel>
  </diagram>
</mxfile>
